<svg width="31" height="30" viewBox="0 0 31 30" fill="none" xmlns="http://www.w3.org/2000/svg">
<path fill-rule="evenodd" clip-rule="evenodd" d="M15.0276 0C6.72486 0 0 6.72486 0 15.0276C0 21.6773 4.30166 27.2939 10.2751 29.2851C11.0265 29.4166 11.3083 28.9657 11.3083 28.5713C11.3083 28.2144 11.2895 27.0309 11.2895 25.7724C7.51381 26.4674 6.53702 24.8519 6.23646 24.0066C6.0674 23.5746 5.33481 22.2409 4.69613 21.884C4.17017 21.6022 3.41878 20.9072 4.67735 20.8884C5.86077 20.8696 6.70608 21.9779 6.98785 22.4287C8.34033 24.7017 10.5006 24.063 11.3646 23.6685C11.4961 22.6917 11.8906 22.0343 12.3227 21.6586C8.97901 21.2829 5.48508 19.9867 5.48508 14.2387C5.48508 12.6044 6.0674 11.2519 7.02541 10.2C6.87514 9.82431 6.34917 8.28398 7.17569 6.21768C7.17569 6.21768 8.43425 5.8232 11.3083 7.75801C12.5105 7.41989 13.7878 7.25083 15.0652 7.25083C16.3425 7.25083 17.6199 7.41989 18.8221 7.75801C21.6961 5.80442 22.9547 6.21768 22.9547 6.21768C23.7812 8.28398 23.2552 9.82431 23.105 10.2C24.063 11.2519 24.6453 12.5856 24.6453 14.2387C24.6453 20.0055 21.1326 21.2829 17.7889 21.6586C18.3337 22.1282 18.8033 23.0298 18.8033 24.4387C18.8033 26.4486 18.7845 28.0641 18.7845 28.5713C18.7845 28.9657 19.0663 29.4354 19.8177 29.2851C25.7536 27.2939 30.0552 21.6586 30.0552 15.0276C30.0552 6.72486 23.3304 0 15.0276 0Z" fill="#0946E2"/>
</svg>
