<svg width="32" height="31" viewBox="0 0 32 31" fill="none" xmlns="http://www.w3.org/2000/svg">
<path d="M18.7379 12.8921C17.4522 12.8921 16.8765 13.5991 16.5551 14.0954V13.064H14.1326C14.1641 13.7468 14.1326 20.3526 14.1326 20.3526H16.5551V16.2812C16.5551 16.0633 16.5702 15.8454 16.6344 15.6904C16.81 15.2546 17.2083 14.8037 17.8777 14.8037C18.7542 14.8037 19.1047 15.4725 19.1047 16.4519V20.352H21.5272H21.5278V16.1717C21.5278 13.9338 20.3323 12.8921 18.7379 12.8921ZM16.5545 14.1209H16.5388C16.5442 14.1124 16.5503 14.1045 16.5545 14.096V14.1209Z" fill="#0946E2"/>
<path d="M12.7913 13.064H10.3688V20.3526H12.7913V13.064Z" fill="#0946E2"/>
<path d="M16 0C7.71378 0 0.972351 6.74143 0.972351 15.0276C0.972351 23.3138 7.71378 30.0552 16 30.0552C24.2862 30.0552 31.0276 23.3138 31.0276 15.0276C31.0276 6.74143 24.2862 0 16 0ZM23.969 21.8247C23.969 22.4627 23.4387 22.9809 22.7832 22.9809H9.11448C8.46074 22.9809 7.92988 22.4633 7.92988 21.8247V7.99686C7.92988 7.35825 8.46074 6.8407 9.11448 6.8407H22.7832C23.4381 6.8407 23.969 7.35885 23.969 7.99686V21.8247Z" fill="#0946E2"/>
<path d="M11.5963 9.55011C10.7683 9.55011 10.2259 10.0937 10.2259 10.8092C10.2259 11.5083 10.7519 12.0682 11.5642 12.0682H11.58C12.425 12.0682 12.951 11.5083 12.951 10.8092C12.9347 10.0943 12.4256 9.55011 11.5963 9.55011Z" fill="#0946E2"/>
</svg>
